<svg height="110" width="110" viewBox="0 0 29 29" xmlns="http://www.w3.org/2000/svg" class="qrcode-svg"><path fill="#FFFFFF" d="M0,0 h29v29H0z" shape-rendering="crispEdges"></path><path fill="#000000" d="M0 0h7v1H0zM9 0h1v1H9zM14 0h1v1H14zM17 0h3v1H17zM22,0 h7v1H22zM0 1h1v1H0zM6 1h1v1H6zM8 1h2v1H8zM11 1h2v1H11zM15 1h1v1H15zM17 1h1v1H17zM20 1h1v1H20zM22 1h1v1H22zM28,1 h1v1H28zM0 2h1v1H0zM2 2h3v1H2zM6 2h1v1H6zM9 2h3v1H9zM14 2h1v1H14zM16 2h1v1H16zM18 2h1v1H18zM22 2h1v1H22zM24 2h3v1H24zM28,2 h1v1H28zM0 3h1v1H0zM2 3h3v1H2zM6 3h1v1H6zM8 3h2v1H8zM11 3h1v1H11zM13 3h1v1H13zM17 3h1v1H17zM22 3h1v1H22zM24 3h3v1H24zM28,3 h1v1H28zM0 4h1v1H0zM2 4h3v1H2zM6 4h1v1H6zM10 4h1v1H10zM12 4h2v1H12zM17 4h4v1H17zM22 4h1v1H22zM24 4h3v1H24zM28,4 h1v1H28zM0 5h1v1H0zM6 5h1v1H6zM8 5h1v1H8zM10 5h1v1H10zM13 5h3v1H13zM20 5h1v1H20zM22 5h1v1H22zM28,5 h1v1H28zM0 6h7v1H0zM8 6h1v1H8zM10 6h1v1H10zM12 6h1v1H12zM14 6h1v1H14zM16 6h1v1H16zM18 6h1v1H18zM20 6h1v1H20zM22,6 h7v1H22zM12 7h1v1H12zM15 7h1v1H15zM18 7h2v1H18zM0 8h5v1H0zM6 8h5v1H6zM12 8h2v1H12zM16 8h2v1H16zM21 8h1v1H21zM23 8h1v1H23zM25 8h1v1H25zM27 8h1v1H27zM0 9h1v1H0zM2 9h1v1H2zM4 9h1v1H4zM7 9h1v1H7zM9 9h1v1H9zM14 9h1v1H14zM17 9h8v1H17zM28,9 h1v1H28zM1 10h1v1H1zM6 10h1v1H6zM8 10h2v1H8zM11 10h3v1H11zM15 10h2v1H15zM18 10h1v1H18zM20 10h1v1H20zM22 10h1v1H22zM0 11h2v1H0zM4 11h1v1H4zM8 11h4v1H8zM14 11h1v1H14zM16 11h1v1H16zM21 11h1v1H21zM23 11h1v1H23zM25 11h1v1H25zM27 11h1v1H27zM0 12h1v1H0zM5 12h2v1H5zM8 12h2v1H8zM11 12h1v1H11zM13 12h1v1H13zM16 12h2v1H16zM19 12h1v1H19zM25 12h2v1H25zM1 13h2v1H1zM5 13h1v1H5zM8 13h3v1H8zM12 13h2v1H12zM15 13h10v1H15zM28,13 h1v1H28zM0 14h2v1H0zM6 14h1v1H6zM13 14h5v1H13zM22 14h2v1H22zM25 14h2v1H25zM3 15h1v1H3zM7 15h2v1H7zM12 15h1v1H12zM15 15h1v1H15zM18 15h3v1H18zM22 15h3v1H22zM27 15h1v1H27zM2 16h1v1H2zM4 16h1v1H4zM6 16h4v1H6zM12 16h4v1H12zM17 16h1v1H17zM20 16h1v1H20zM23 16h1v1H23zM25 16h2v1H25zM0 17h2v1H0zM7 17h4v1H7zM16 17h9v1H16zM26 17h1v1H26zM28,17 h1v1H28zM0 18h1v1H0zM2 18h3v1H2zM6 18h3v1H6zM11 18h2v1H11zM15 18h4v1H15zM20 18h2v1H20zM23 18h1v1H23zM26 18h1v1H26zM0 19h1v1H0zM3 19h1v1H3zM9 19h1v1H9zM11 19h1v1H11zM14 19h1v1H14zM23 19h1v1H23zM27 19h1v1H27zM0 20h1v1H0zM4 20h1v1H4zM6 20h3v1H6zM11 20h1v1H11zM13 20h3v1H13zM17 20h2v1H17zM20 20h5v1H20zM26,20 h3v1H26zM8 21h3v1H8zM12 21h1v1H12zM14 21h1v1H14zM16 21h3v1H16zM20 21h1v1H20zM24,21 h5v1H24zM0 22h7v1H0zM8 22h1v1H8zM10 22h1v1H10zM15 22h3v1H15zM19 22h2v1H19zM22 22h1v1H22zM24 22h3v1H24zM0 23h1v1H0zM6 23h1v1H6zM10 23h1v1H10zM12 23h1v1H12zM15 23h1v1H15zM19 23h2v1H19zM24 23h1v1H24zM28,23 h1v1H28zM0 24h1v1H0zM2 24h3v1H2zM6 24h1v1H6zM8 24h1v1H8zM12 24h3v1H12zM20 24h5v1H20zM26,24 h3v1H26zM0 25h1v1H0zM2 25h3v1H2zM6 25h1v1H6zM8 25h3v1H8zM13 25h1v1H13zM16 25h1v1H16zM18 25h1v1H18zM20 25h1v1H20zM25,25 h4v1H25zM0 26h1v1H0zM2 26h3v1H2zM6 26h1v1H6zM8 26h1v1H8zM11 26h3v1H11zM15 26h1v1H15zM18 26h10v1H18zM0 27h1v1H0zM6 27h1v1H6zM8 27h1v1H8zM10 27h2v1H10zM14 27h1v1H14zM16 27h1v1H16zM20 27h1v1H20zM24 27h2v1H24zM27 27h1v1H27zM0 28h7v1H0zM8 28h1v1H8zM11 28h2v1H11zM15 28h3v1H15zM21 28h1v1H21zM23 28h2v1H23zM26 28h1v1H26z" shape-rendering="crispEdges"></path></svg>