<svg width="65" height="65" viewBox="0 0 65 65" fill="none" xmlns="http://www.w3.org/2000/svg"><g id="Frame"><g id="Vector" filter="url(#filter0_b_2383_563)"><path d="M57.8283 20.3268C57.8283 20.3264 57.8279 20.3261 57.8275 20.3261C55.5299 20.3265 53.6266 22.1458 53.6266 24.355V40.0231C53.6266 42.2325 55.4653 44.0535 57.8283 44.0535C60.1248 44.0535 62.0285 42.2325 62.0285 40.0217V24.3565C61.9635 22.1473 60.1252 20.328 57.829 20.3276C57.8286 20.3276 57.8283 20.3272 57.8283 20.3268ZM7.15384 20.3268C7.15384 20.3264 7.1535 20.3261 7.1531 20.3261C4.85837 20.3265 2.95361 22.1458 2.95361 24.3535V40.0231C2.95361 42.2325 4.79084 44.0535 7.15384 44.0535C9.51683 44.0535 11.3555 42.2325 11.3555 40.0217V24.3565C11.3555 22.1473 9.51722 20.328 7.15458 20.3276C7.15417 20.3276 7.15384 20.3272 7.15384 20.3268ZM13.915 20.4561V49.1222C13.915 50.8117 15.3593 52.2413 17.1966 52.2413H19.8636C20.4575 52.2413 20.939 52.7228 20.939 53.3167V60.9519C20.939 63.1628 22.7762 64.9823 25.1392 64.9823C27.4372 64.9823 29.3409 63.1628 29.3409 60.9519V53.3167C29.3409 52.7228 29.8224 52.2413 30.4163 52.2413H34.8287C35.4226 52.2413 35.9041 52.7228 35.9041 53.3167V60.9519C35.9041 63.1628 37.7428 64.9823 40.1058 64.9823C42.4009 64.9823 44.306 63.1628 44.306 60.9519V53.3167C44.306 52.7228 44.7875 52.2413 45.3814 52.2413H48.047C49.8857 52.2413 51.33 50.8767 51.33 49.1222V21.53C51.33 20.9361 50.8486 20.4546 50.2546 20.4546H13.9164C13.9156 20.4546 13.915 20.4552 13.915 20.4561ZM42.5741 6.21664C41.9598 5.8979 41.7468 5.10352 42.1597 4.54816L44.7483 1.06626C44.8037 0.99171 44.8519 0.910998 44.8764 0.821378C44.9428 0.577944 44.9274 0.323158 44.7552 0.180078C44.6832 0.120272 44.5981 0.0743387 44.5098 0.0433885C44.2591 -0.0444722 43.9489 0.0826501 43.7803 0.304139L40.7106 4.52628C40.4293 4.91317 39.927 5.06526 39.4716 4.91897C37.2169 4.19473 34.8624 3.82176 32.4911 3.81466C30.0323 3.81466 27.6793 4.17636 25.5231 4.89974C25.0614 5.05461 24.5471 4.90539 24.2607 4.51158L21.2018 0.305616C21.0039 -0.019296 20.6111 -0.0857553 20.3482 0.109192C20.2204 0.204918 20.1349 0.346779 20.1101 0.504566C20.0853 0.662352 20.123 0.823597 20.2153 0.953963L22.8912 4.55439C23.3028 5.10826 23.0922 5.90021 22.481 6.22047C18.061 8.53613 14.8809 12.329 14.0711 16.7585C13.9577 17.3787 14.4569 17.9203 15.0873 17.9203H50.0639C50.7047 17.9203 51.2068 17.3617 51.0784 16.7339C50.1737 12.3122 47.0299 8.52872 42.5741 6.21664ZM24.6149 13.0451C23.4334 13.0451 22.5798 12.2003 22.5798 11.0956C22.5798 9.98947 23.4984 9.14617 24.6149 9.14617C25.7964 9.14617 26.6486 9.98947 26.6486 11.0956C26.6486 12.2003 25.7299 13.0451 24.6149 13.0451ZM40.6301 13.0451C39.4486 13.0451 38.595 12.2003 38.595 11.0956C38.595 9.98947 39.5151 9.14617 40.6301 9.14617C41.8116 9.14617 42.6652 9.98947 42.6652 11.0956C42.6652 12.2003 41.7466 13.0451 40.6301 13.0451Z" fill="url(#paint0_linear_2383_563)"></path><path d="M7.12472 20.6488C5.00776 20.6641 3.27623 22.346 3.27623 24.3535V40.0231C3.27623 42.0449 4.95943 43.7309 7.15384 43.7309C9.34832 43.7309 11.0329 42.0448 11.0329 40.0217V24.3565C11.0329 22.3352 9.34894 20.6506 7.15458 20.6502L7.12472 20.6488ZM7.12472 20.6488C7.13455 20.6497 7.14449 20.6502 7.15453 20.6502L7.12472 20.6488ZM20.9263 0.473441L20.9332 0.484705L20.9409 0.495372L23.9998 4.70134C24.3739 5.21564 25.0384 5.40263 25.6257 5.20561C27.7455 4.49443 30.0634 4.13733 32.4906 4.13729C34.8286 4.14433 37.1499 4.51208 39.3729 5.22613C39.9546 5.41299 40.6044 5.22089 40.9715 4.716L44.0388 0.497171C44.1449 0.359862 44.3163 0.31742 44.4031 0.347853C44.4596 0.367642 44.51 0.395771 44.549 0.428217C44.5613 0.438467 44.5783 0.459217 44.5863 0.511712C44.5948 0.56761 44.59 0.645327 44.5651 0.736445C44.5557 0.771097 44.5334 0.814566 44.4894 0.873776L41.9008 4.35567C41.3603 5.08269 41.6485 6.09982 42.4255 6.503C46.8109 8.77857 49.8805 12.4887 50.7623 16.7986C50.8456 17.206 50.5219 17.5977 50.0639 17.5977H15.0873C14.6364 17.5977 14.3151 17.2177 14.3884 16.8165C15.1767 12.5051 18.2785 8.78641 22.6307 6.50625C23.404 6.10109 23.689 5.08696 23.1501 4.36194L20.4769 0.765074C20.4344 0.70377 20.4172 0.628443 20.4288 0.554714C20.4405 0.480222 20.4807 0.413234 20.541 0.367901C20.6439 0.29213 20.8223 0.302664 20.9263 0.473441ZM53.9492 24.355C53.9492 22.3459 55.6794 20.6641 57.7991 20.6488C57.809 20.6497 57.8189 20.6502 57.829 20.6502C59.9499 20.6506 61.6436 22.3294 61.7059 24.3613V40.0217C61.7059 42.0417 59.9595 43.7309 57.8283 43.7309C55.6337 43.7309 53.9492 42.0448 53.9492 40.0231V24.355ZM14.2376 49.1222V20.7772H50.2546C50.6704 20.7772 51.0074 21.1142 51.0074 21.53V49.1222C51.0074 50.6826 49.7238 51.9187 48.047 51.9187H45.3814C44.6093 51.9187 43.9834 52.5446 43.9834 53.3167V60.9519C43.9834 62.9717 42.2358 64.6597 40.1058 64.6597C37.9112 64.6597 36.2267 62.9749 36.2267 60.9519V53.3167C36.2267 52.5446 35.6008 51.9187 34.8287 51.9187H30.4163C29.6442 51.9187 29.0183 52.5446 29.0183 53.3167V60.9519C29.0183 62.9717 27.2722 64.6597 25.1392 64.6597C22.9447 64.6597 21.2616 62.9751 21.2616 60.9519V53.3167C21.2616 52.5446 20.6357 51.9187 19.8636 51.9187H17.1966C15.5258 51.9187 14.2376 50.622 14.2376 49.1222ZM22.2571 11.0956C22.2571 12.3886 23.2654 13.3677 24.6149 13.3677C25.8912 13.3677 26.9712 12.395 26.9712 11.0956C26.9712 9.8014 25.9645 8.82355 24.6149 8.82355C23.3375 8.82355 22.2571 9.79449 22.2571 11.0956ZM38.2724 11.0956C38.2724 12.3886 39.2806 13.3677 40.6301 13.3677C41.9077 13.3677 42.9879 12.3952 42.9879 11.0956C42.9879 9.8011 41.9794 8.82355 40.6301 8.82355C39.3543 8.82355 38.2724 9.79434 38.2724 11.0956Z" stroke="url(#paint1_linear_2383_563)" stroke-width="0.645241"></path></g></g><defs><filter id="filter0_b_2383_563" x="-14.2528" y="-17.2064" width="93.4878" height="99.3951" filterUnits="userSpaceOnUse" color-interpolation-filters="sRGB"><feFlood flood-opacity="0" result="BackgroundImageFix"></feFlood><feGaussianBlur in="BackgroundImageFix" stdDeviation="8.60321"></feGaussianBlur><feComposite in2="SourceAlpha" operator="in" result="effect1_backgroundBlur_2383_563"></feComposite><feBlend mode="normal" in="SourceGraphic" in2="effect1_backgroundBlur_2383_563" result="shape"></feBlend></filter><linearGradient id="paint0_linear_2383_563" x1="14.5" y1="2.5" x2="42.5" y2="64" gradientUnits="userSpaceOnUse"><stop stop-color="#5D90FF"></stop><stop offset="1" stop-color="#5B8CFF"></stop></linearGradient><linearGradient id="paint1_linear_2383_563" x1="4.60558" y1="7.80462" x2="66.8149" y2="59.4408" gradientUnits="userSpaceOnUse"><stop stop-color="white" stop-opacity="0.8"></stop><stop offset="1" stop-color="white" stop-opacity="0"></stop></linearGradient></defs></svg>