<svg height="110" width="110" viewBox="0 0 33 33" xmlns="http://www.w3.org/2000/svg" class="qrcode-svg"><path fill="#FFFFFF" d="M0,0 h33v33H0z" shape-rendering="crispEdges"></path><path fill="#000000" d="M0 0h7v1H0zM10 0h1v1H10zM12 0h1v1H12zM14 0h1v1H14zM18 0h6v1H18zM26,0 h7v1H26zM0 1h1v1H0zM6 1h1v1H6zM8 1h1v1H8zM10 1h1v1H10zM13 1h4v1H13zM20 1h2v1H20zM26 1h1v1H26zM32,1 h1v1H32zM0 2h1v1H0zM2 2h3v1H2zM6 2h1v1H6zM12 2h1v1H12zM14 2h2v1H14zM18 2h1v1H18zM20 2h2v1H20zM24 2h1v1H24zM26 2h1v1H26zM28 2h3v1H28zM32,2 h1v1H32zM0 3h1v1H0zM2 3h3v1H2zM6 3h1v1H6zM8 3h3v1H8zM12 3h2v1H12zM16 3h2v1H16zM19 3h1v1H19zM22 3h1v1H22zM24 3h1v1H24zM26 3h1v1H26zM28 3h3v1H28zM32,3 h1v1H32zM0 4h1v1H0zM2 4h3v1H2zM6 4h1v1H6zM9 4h1v1H9zM14 4h1v1H14zM18 4h2v1H18zM21 4h3v1H21zM26 4h1v1H26zM28 4h3v1H28zM32,4 h1v1H32zM0 5h1v1H0zM6 5h1v1H6zM8 5h2v1H8zM11 5h6v1H11zM20 5h2v1H20zM26 5h1v1H26zM32,5 h1v1H32zM0 6h7v1H0zM8 6h1v1H8zM10 6h1v1H10zM12 6h1v1H12zM14 6h1v1H14zM16 6h1v1H16zM18 6h1v1H18zM20 6h1v1H20zM22 6h1v1H22zM24 6h1v1H24zM26,6 h7v1H26zM9 7h3v1H9zM14 7h1v1H14zM20 7h2v1H20zM23 7h1v1H23zM0 8h5v1H0zM6 8h4v1H6zM11 8h1v1H11zM13 8h1v1H13zM15 8h3v1H15zM23 8h3v1H23zM27 8h1v1H27zM29 8h1v1H29zM31 8h1v1H31zM0 9h1v1H0zM3 9h3v1H3zM7 9h1v1H7zM10 9h1v1H10zM12 9h1v1H12zM14 9h1v1H14zM19 9h2v1H19zM23 9h4v1H23zM30,9 h3v1H30zM0 10h4v1H0zM6 10h3v1H6zM10 10h1v1H10zM13 10h1v1H13zM15 10h4v1H15zM22 10h1v1H22zM24 10h1v1H24zM27 10h1v1H27zM29 10h1v1H29zM31 10h1v1H31zM0 11h3v1H0zM5 11h1v1H5zM7 11h1v1H7zM12 11h1v1H12zM20 11h4v1H20zM27 11h1v1H27zM30 11h1v1H30zM0 12h1v1H0zM2 12h1v1H2zM4 12h3v1H4zM9 12h2v1H9zM12 12h2v1H12zM15 12h3v1H15zM20 12h1v1H20zM22 12h4v1H22zM28 12h2v1H28zM1 13h2v1H1zM4 13h2v1H4zM13 13h2v1H13zM17 13h5v1H17zM23 13h1v1H23zM26 13h1v1H26zM31,13 h2v1H31zM0 14h4v1H0zM6 14h2v1H6zM9 14h1v1H9zM11 14h2v1H11zM15 14h1v1H15zM17 14h2v1H17zM20 14h2v1H20zM25 14h2v1H25zM31 14h1v1H31zM3 15h2v1H3zM8 15h2v1H8zM11 15h1v1H11zM16 15h1v1H16zM19 15h6v1H19zM27 15h1v1H27zM30 15h1v1H30zM6 16h1v1H6zM8 16h1v1H8zM11 16h1v1H11zM15 16h3v1H15zM19 16h1v1H19zM22 16h1v1H22zM24 16h2v1H24zM27 16h2v1H27zM31 16h1v1H31zM0 17h1v1H0zM2 17h2v1H2zM5 17h1v1H5zM7 17h1v1H7zM10 17h1v1H10zM12 17h2v1H12zM19 17h5v1H19zM26 17h1v1H26zM29 17h1v1H29zM31,17 h2v1H31zM5 18h2v1H5zM8 18h2v1H8zM13 18h3v1H13zM20 18h1v1H20zM22 18h1v1H22zM25 18h1v1H25zM27 18h3v1H27zM31 18h1v1H31zM4 19h1v1H4zM7 19h2v1H7zM10 19h1v1H10zM12 19h2v1H12zM15 19h2v1H15zM18 19h1v1H18zM20 19h2v1H20zM23 19h1v1H23zM25 19h1v1H25zM28 19h1v1H28zM30 19h1v1H30zM0 20h1v1H0zM2 20h2v1H2zM5 20h2v1H5zM12 20h1v1H12zM14 20h4v1H14zM19 20h1v1H19zM22 20h3v1H22zM27 20h2v1H27zM31 20h1v1H31zM0 21h3v1H0zM8 21h2v1H8zM17 21h4v1H17zM23 21h2v1H23zM26 21h2v1H26zM29 21h1v1H29zM31,21 h2v1H31zM0 22h1v1H0zM2 22h2v1H2zM6 22h4v1H6zM11 22h2v1H11zM15 22h1v1H15zM17 22h1v1H17zM20 22h2v1H20zM25 22h2v1H25zM28 22h2v1H28zM31 22h1v1H31zM0 23h1v1H0zM3 23h2v1H3zM7 23h1v1H7zM10 23h2v1H10zM14 23h1v1H14zM16 23h1v1H16zM20 23h3v1H20zM26 23h2v1H26zM29 23h2v1H29zM0 24h1v1H0zM2 24h1v1H2zM4 24h4v1H4zM9 24h3v1H9zM15 24h3v1H15zM22 24h7v1H22zM32,24 h1v1H32zM8 25h1v1H8zM12 25h3v1H12zM19 25h3v1H19zM24 25h1v1H24zM28 25h1v1H28zM30 25h1v1H30zM32,25 h1v1H32zM0 26h7v1H0zM8 26h3v1H8zM13 26h3v1H13zM18 26h1v1H18zM23 26h2v1H23zM26 26h1v1H26zM28 26h4v1H28zM0 27h1v1H0zM6 27h1v1H6zM10 27h1v1H10zM12 27h2v1H12zM15 27h2v1H15zM18 27h2v1H18zM21 27h4v1H21zM28,27 h5v1H28zM0 28h1v1H0zM2 28h3v1H2zM6 28h1v1H6zM8 28h1v1H8zM10 28h1v1H10zM12 28h1v1H12zM14 28h2v1H14zM17 28h2v1H17zM20 28h1v1H20zM22 28h1v1H22zM24 28h6v1H24zM31,28 h2v1H31zM0 29h1v1H0zM2 29h3v1H2zM6 29h1v1H6zM8 29h1v1H8zM16 29h6v1H16zM23 29h1v1H23zM25 29h1v1H25zM28 29h1v1H28zM30,29 h3v1H30zM0 30h1v1H0zM2 30h3v1H2zM6 30h1v1H6zM8 30h1v1H8zM10 30h3v1H10zM15 30h3v1H15zM20 30h2v1H20zM23 30h1v1H23zM26 30h1v1H26zM30 30h1v1H30zM0 31h1v1H0zM6 31h1v1H6zM8 31h4v1H8zM14 31h2v1H14zM20 31h3v1H20zM27 31h1v1H27zM29 31h2v1H29zM0 32h7v1H0zM8 32h1v1H8zM11 32h1v1H11zM17 32h1v1H17zM19 32h1v1H19zM23 32h5v1H23zM29 32h1v1H29zM31 32h1v1H31z" shape-rendering="crispEdges"></path></svg>