<svg width="68" height="68" viewBox="0 0 68 68" fill="none" xmlns="http://www.w3.org/2000/svg"><g id="Frame"><g id="Vector" filter="url(#filter0_b_2383_553)"><path d="M33.0767 20.4579C30.5947 20.4579 26.7527 17.6359 22.7067 17.7379C17.3687 17.8059 12.4727 20.8319 9.71869 25.6259C4.17669 35.2479 8.29069 49.4599 13.6967 57.2799C16.3487 61.0879 19.4767 65.3719 23.6247 65.2359C27.6027 65.0659 29.0987 62.6519 33.9267 62.6519C38.7207 62.6519 40.0807 65.2359 44.2967 65.1339C48.5807 65.0659 51.3007 61.2579 53.9187 57.4159C56.1391 54.1726 57.4076 51.0026 57.9525 49.4505C58.1432 48.9073 57.8517 48.3086 57.3421 48.0406C55.1665 46.8965 49.9201 43.3478 49.8387 35.7579C49.7858 29.561 53.7552 25.8806 55.6576 24.4757C56.1669 24.0996 56.3329 23.3695 55.9348 22.8773C52.2131 18.2772 47.0306 17.7296 45.1467 17.6019C39.9107 17.1939 35.5247 20.4579 33.0767 20.4579ZM41.9167 12.4339C43.9256 10.0233 45.3164 6.74173 45.2465 3.40646C45.2347 2.84089 44.7407 2.4177 44.1816 2.5037C41.2476 2.95497 37.9752 4.78612 35.9327 7.16391C34.0561 9.32208 32.4096 12.6887 32.5286 16.0198C32.5467 16.5275 32.9637 16.9233 33.4715 16.9082C36.6898 16.8126 39.8897 14.8664 41.9167 12.4339Z" fill="url(#paint0_linear_2383_553)"></path><path d="M22.7108 18.0605L22.7148 18.0604C24.667 18.0112 26.5854 18.6679 28.361 19.3602C28.5992 19.4531 28.8355 19.5469 29.0692 19.6396C29.697 19.8888 30.3049 20.1301 30.8743 20.324C31.6554 20.5899 32.4017 20.7805 33.0767 20.7805C33.7492 20.7805 34.5281 20.5585 35.3678 20.258C35.816 20.0977 36.3089 19.9041 36.8252 19.7013C37.2638 19.5291 37.7193 19.3502 38.1787 19.1793C40.2239 18.4187 42.5755 17.7252 45.1217 17.9236L45.1249 17.9238C46.9887 18.0502 52.0512 18.59 55.6839 23.0803C55.9434 23.401 55.8587 23.9261 55.4659 24.2162C53.5305 25.6454 49.4619 29.4108 49.5161 35.7607L49.5161 35.7614C49.5993 43.5275 54.9747 47.1601 57.192 48.3261C57.5845 48.5326 57.7771 48.9761 57.6481 49.3436C57.1087 50.88 55.8515 54.0217 53.6525 57.2337L53.6521 57.2342C52.3403 59.1594 51.0247 61.0419 49.5123 62.4544C48.0063 63.8608 46.3282 64.779 44.2916 64.8113L44.2889 64.8114C42.2911 64.8597 40.9655 64.287 39.5273 63.6656L39.4564 63.635C37.981 62.9978 36.3923 62.3293 33.9267 62.3293C31.449 62.3293 29.8211 62.9519 28.3311 63.5831C28.2222 63.6293 28.1141 63.6754 28.0067 63.7212C26.6506 64.2999 25.3916 64.8372 23.6126 64.9135C21.6616 64.977 19.9227 64.0038 18.3203 62.5015C16.7169 60.9983 15.29 59.0031 13.9619 57.0962C11.2855 53.2246 8.92334 47.7602 7.9199 42.0726C6.916 36.3824 7.27843 30.5091 9.99825 25.7869L9.99843 25.7866C12.6999 21.0841 17.4951 18.1269 22.7108 18.0605ZM36.1762 7.37561L36.1775 7.37413C38.1716 5.05256 41.3756 3.26171 44.2307 2.82257C44.593 2.76683 44.9161 3.03853 44.924 3.41323C44.992 6.65777 43.6369 9.86574 41.6689 12.2274C39.6847 14.6084 36.5651 16.4936 33.4619 16.5858C33.134 16.5955 32.8629 16.3411 32.851 16.0083C32.7357 12.7813 34.3364 9.49133 36.1762 7.37561Z" stroke="url(#paint1_linear_2383_553)" stroke-width="0.645241"></path></g></g><defs><filter id="filter0_b_2383_553" x="-10.121" y="-14.7139" width="85.3386" height="97.1594" filterUnits="userSpaceOnUse" color-interpolation-filters="sRGB"><feFlood flood-opacity="0" result="BackgroundImageFix"></feFlood><feGaussianBlur in="BackgroundImageFix" stdDeviation="8.60321"></feGaussianBlur><feComposite in2="SourceAlpha" operator="in" result="effect1_backgroundBlur_2383_553"></feComposite><feBlend mode="normal" in="SourceGraphic" in2="effect1_backgroundBlur_2383_553" result="shape"></feBlend></filter><linearGradient id="paint0_linear_2383_553" x1="12.5" y1="10.5" x2="46" y2="63.5" gradientUnits="userSpaceOnUse"><stop stop-color="#5D8EFF"></stop><stop offset="1" stop-color="#4E71FF"></stop></linearGradient><linearGradient id="paint1_linear_2383_553" x1="8.5168" y1="9.95065" x2="67.1302" y2="53.545" gradientUnits="userSpaceOnUse"><stop stop-color="white" stop-opacity="0.8"></stop><stop offset="1" stop-color="white" stop-opacity="0"></stop></linearGradient></defs></svg>