<svg width="68" height="68" viewBox="0 0 68 68" fill="none" xmlns="http://www.w3.org/2000/svg"><g id="Group 192241"><circle id="Ellipse 5" cx="34" cy="34" r="34" fill="url(#paint0_linear_2383_539)"></circle><g id="Union" filter="url(#filter0_b_2383_539)"><mask id="path-2-inside-1_2383_539" fill="white"><path fill-rule="evenodd" clip-rule="evenodd" d="M23.7321 45C22.7755 44.4477 22.4477 43.2245 23 42.2679L24.6128 39.4744C24.7346 39.2636 24.5824 39 24.3389 39H22C20.8954 39 20 38.1046 20 37C20 35.8954 20.8954 35 22 35H27.0135C27.1265 35 27.231 34.9397 27.2875 34.8418L32.0486 26.5953C32.1051 26.4975 32.1051 26.3769 32.0486 26.279L30.0007 22.732C29.4485 21.7755 29.7762 20.5523 30.7328 20C31.6894 19.4477 32.9126 19.7755 33.4648 20.732L34.1754 21.9627C34.2971 22.1736 34.6015 22.1736 34.7232 21.9627L35.5 20.6173C36.0523 19.6607 37.2755 19.333 38.232 19.8853C39.1886 20.4375 39.5164 21.6607 38.9641 22.6173L36.85 26.279C36.7935 26.3769 36.7935 26.4975 36.85 26.5953L41.6111 34.8418C41.6676 34.9397 41.7721 35 41.8851 35H47C48.1046 35 49 35.8954 49 37C49 38.1046 48.1046 39 47 39H44.5597C44.3162 39 44.164 39.2636 44.2858 39.4744L45.9648 42.3827C46.5171 43.3393 46.1894 44.5624 45.2328 45.1147C44.2762 45.667 43.053 45.3393 42.5007 44.3827L39.4844 39.1581C39.4279 39.0603 39.3234 39 39.2104 39H29.6882C29.5752 39 29.4707 39.0603 29.4142 39.1581L26.4641 44.2679C25.9118 45.2245 24.6886 45.5523 23.7321 45ZM32.0889 34.5256C31.9671 34.7364 32.1193 35 32.3628 35H36.5358C36.7793 35 36.9315 34.7364 36.8097 34.5256L34.7232 30.9116C34.6015 30.7008 34.2971 30.7008 34.1754 30.9116L32.0889 34.5256Z"></path></mask><path fill-rule="evenodd" clip-rule="evenodd" d="M23.7321 45C22.7755 44.4477 22.4477 43.2245 23 42.2679L24.6128 39.4744C24.7346 39.2636 24.5824 39 24.3389 39H22C20.8954 39 20 38.1046 20 37C20 35.8954 20.8954 35 22 35H27.0135C27.1265 35 27.231 34.9397 27.2875 34.8418L32.0486 26.5953C32.1051 26.4975 32.1051 26.3769 32.0486 26.279L30.0007 22.732C29.4485 21.7755 29.7762 20.5523 30.7328 20C31.6894 19.4477 32.9126 19.7755 33.4648 20.732L34.1754 21.9627C34.2971 22.1736 34.6015 22.1736 34.7232 21.9627L35.5 20.6173C36.0523 19.6607 37.2755 19.333 38.232 19.8853C39.1886 20.4375 39.5164 21.6607 38.9641 22.6173L36.85 26.279C36.7935 26.3769 36.7935 26.4975 36.85 26.5953L41.6111 34.8418C41.6676 34.9397 41.7721 35 41.8851 35H47C48.1046 35 49 35.8954 49 37C49 38.1046 48.1046 39 47 39H44.5597C44.3162 39 44.164 39.2636 44.2858 39.4744L45.9648 42.3827C46.5171 43.3393 46.1894 44.5624 45.2328 45.1147C44.2762 45.667 43.053 45.3393 42.5007 44.3827L39.4844 39.1581C39.4279 39.0603 39.3234 39 39.2104 39H29.6882C29.5752 39 29.4707 39.0603 29.4142 39.1581L26.4641 44.2679C25.9118 45.2245 24.6886 45.5523 23.7321 45ZM32.0889 34.5256C31.9671 34.7364 32.1193 35 32.3628 35H36.5358C36.7793 35 36.9315 34.7364 36.8097 34.5256L34.7232 30.9116C34.6015 30.7008 34.2971 30.7008 34.1754 30.9116L32.0889 34.5256Z" fill="url(#paint1_linear_2383_539)"></path><path d="M23 42.2679L23.1644 42.3628L23 42.2679ZM23.7321 45L23.6372 45.1643L23.7321 45ZM30.0007 22.732L30.1651 22.6372L30.0007 22.732ZM30.7328 20L30.8277 20.1643L30.7328 20ZM33.4648 20.732L33.6292 20.6372V20.6372L33.4648 20.732ZM35.5 20.6173L35.3356 20.5224V20.5224L35.5 20.6173ZM38.232 19.8853L38.3269 19.7209L38.232 19.8853ZM38.9641 22.6173L39.1285 22.7122L38.9641 22.6173ZM45.9648 42.3827L46.1292 42.2878L45.9648 42.3827ZM45.2328 45.1147L45.1379 44.9504L45.2328 45.1147ZM42.5007 44.3827L42.6651 44.2878L42.5007 44.3827ZM26.4641 44.2679L26.6285 44.3628L26.4641 44.2679ZM24.6128 39.4744L24.4485 39.3795L24.6128 39.4744ZM29.4142 39.1581L29.2499 39.0633L29.4142 39.1581ZM44.2858 39.4744L44.4501 39.3795L44.2858 39.4744ZM32.0889 34.5256L31.9245 34.4307L32.0889 34.5256ZM41.6111 34.8418L41.4468 34.9367L41.6111 34.8418ZM36.85 26.279L36.6857 26.1841L36.85 26.279ZM36.85 26.5953L36.6857 26.6902L36.85 26.5953ZM34.1754 21.9627L34.011 22.0576L34.1754 21.9627ZM36.8097 34.5256L36.6454 34.6204L36.8097 34.5256ZM34.7232 30.9116L34.8876 30.8167L34.7232 30.9116ZM34.1754 30.9116L34.011 30.8167L34.1754 30.9116ZM32.0486 26.5953L31.8842 26.5004L32.0486 26.5953ZM32.0486 26.279L31.8842 26.3739L32.0486 26.279ZM39.4844 39.1581L39.32 39.253L39.4844 39.1581ZM22.8356 42.1731C22.231 43.2204 22.5898 44.5597 23.6372 45.1643L23.8269 44.8356C22.9611 44.3358 22.6645 43.2286 23.1644 42.3628L22.8356 42.1731ZM24.4485 39.3795L22.8356 42.1731L23.1644 42.3628L24.7772 39.5693L24.4485 39.3795ZM24.3389 38.8102H22V39.1898H24.3389V38.8102ZM22 38.8102C21.0002 38.8102 20.1898 37.9998 20.1898 37H19.8102C19.8102 38.2094 20.7906 39.1898 22 39.1898V38.8102ZM20.1898 37C20.1898 36.0002 21.0002 35.1898 22 35.1898V34.8102C20.7906 34.8102 19.8102 35.7906 19.8102 37H20.1898ZM22 35.1898H27.0135V34.8102H22V35.1898ZM31.8842 26.5004L27.1231 34.747L27.4518 34.9367L32.2129 26.6902L31.8842 26.5004ZM29.8364 22.8269L31.8842 26.3739L32.2129 26.1841L30.1651 22.6372L29.8364 22.8269ZM30.6379 19.8356C29.5906 20.4403 29.2317 21.7796 29.8364 22.8269L30.1651 22.6372C29.6652 21.7713 29.9619 20.6642 30.8277 20.1643L30.6379 19.8356ZM33.6292 20.6372C33.0245 19.5898 31.6853 19.231 30.6379 19.8356L30.8277 20.1643C31.6935 19.6645 32.8006 19.9611 33.3005 20.8269L33.6292 20.6372ZM34.3397 21.8678L33.6292 20.6372L33.3005 20.8269L34.011 22.0576L34.3397 21.8678ZM35.3356 20.5224L34.5589 21.8678L34.8876 22.0576L35.6644 20.7122L35.3356 20.5224ZM38.3269 19.7209C37.2796 19.1162 35.9403 19.4751 35.3356 20.5224L35.6644 20.7122C36.1642 19.8464 37.2713 19.5497 38.1372 20.0496L38.3269 19.7209ZM39.1285 22.7122C39.7331 21.6648 39.3743 20.3256 38.3269 19.7209L38.1372 20.0496C39.003 20.5495 39.2996 21.6566 38.7997 22.5224L39.1285 22.7122ZM37.0144 26.3739L39.1285 22.7122L38.7997 22.5224L36.6857 26.1841L37.0144 26.3739ZM41.7755 34.747L37.0144 26.5004L36.6857 26.6902L41.4468 34.9367L41.7755 34.747ZM41.8851 35.1898H47V34.8102H41.8851V35.1898ZM47 35.1898C47.9998 35.1898 48.8102 36.0002 48.8102 37H49.1898C49.1898 35.7906 48.2094 34.8102 47 34.8102V35.1898ZM48.8102 37C48.8102 37.9998 47.9998 38.8102 47 38.8102V39.1898C48.2094 39.1898 49.1898 38.2094 49.1898 37H48.8102ZM47 38.8102H44.5597V39.1898H47V38.8102ZM46.1292 42.2878L44.4501 39.3795L44.1214 39.5693L45.8005 42.4776L46.1292 42.2878ZM45.3277 45.2791C46.375 44.6744 46.7339 43.3351 46.1292 42.2878L45.8005 42.4776C46.3004 43.3434 46.0037 44.4505 45.1379 44.9504L45.3277 45.2791ZM42.3364 44.4776C42.9411 45.5249 44.2803 45.8838 45.3277 45.2791L45.1379 44.9504C44.2721 45.4503 43.165 45.1536 42.6651 44.2878L42.3364 44.4776ZM39.32 39.253L42.3364 44.4776L42.6651 44.2878L39.6487 39.0633L39.32 39.253ZM39.2104 38.8102H29.6882V39.1898H39.2104V38.8102ZM26.6285 44.3628L29.5786 39.253L29.2499 39.0633L26.2997 44.1731L26.6285 44.3628ZM23.6372 45.1643C24.6845 45.769 26.0238 45.4102 26.6285 44.3628L26.2997 44.1731C25.7999 45.0389 24.6928 45.3355 23.8269 44.8356L23.6372 45.1643ZM32.3628 35.1898H36.5358V34.8102H32.3628V35.1898ZM34.5589 31.0065L36.6454 34.6204L36.9741 34.4307L34.8876 30.8167L34.5589 31.0065ZM32.2532 34.6204L34.3397 31.0065L34.011 30.8167L31.9245 34.4307L32.2532 34.6204ZM24.7772 39.5693C24.972 39.2319 24.7285 38.8102 24.3389 38.8102V39.1898C24.4363 39.1898 24.4972 39.2952 24.4485 39.3795L24.7772 39.5693ZM29.6882 38.8102C29.5074 38.8102 29.3403 38.9067 29.2499 39.0633L29.5786 39.253C29.6012 39.2139 29.643 39.1898 29.6882 39.1898V38.8102ZM44.5597 38.8102C44.1701 38.8102 43.9266 39.2319 44.1214 39.5693L44.4501 39.3795C44.4014 39.2952 44.4623 39.1898 44.5597 39.1898V38.8102ZM32.3628 34.8102C32.2654 34.8102 32.2045 34.7048 32.2532 34.6204L31.9245 34.4307C31.7297 34.768 31.9732 35.1898 32.3628 35.1898V34.8102ZM41.4468 34.9367C41.5372 35.0933 41.7043 35.1898 41.8851 35.1898V34.8102C41.8399 34.8102 41.7981 34.7861 41.7755 34.747L41.4468 34.9367ZM36.6857 26.1841C36.5953 26.3407 36.5953 26.5336 36.6857 26.6902L37.0144 26.5004C36.9918 26.4613 36.9918 26.4131 37.0144 26.3739L36.6857 26.1841ZM34.011 22.0576C34.2058 22.395 34.6928 22.395 34.8876 22.0576L34.5589 21.8678C34.5102 21.9522 34.3884 21.9522 34.3397 21.8678L34.011 22.0576ZM36.5358 35.1898C36.9254 35.1898 37.1689 34.768 36.9741 34.4307L36.6454 34.6204C36.6941 34.7048 36.6332 34.8102 36.5358 34.8102V35.1898ZM34.8876 30.8167C34.6928 30.4793 34.2058 30.4793 34.011 30.8167L34.3397 31.0065C34.3884 30.9222 34.5102 30.9222 34.5589 31.0065L34.8876 30.8167ZM27.0135 35.1898C27.1943 35.1898 27.3614 35.0933 27.4518 34.9367L27.1231 34.747C27.1005 34.7861 27.0587 34.8102 27.0135 34.8102V35.1898ZM32.2129 26.6902C32.3033 26.5336 32.3033 26.3407 32.2129 26.1841L31.8842 26.3739C31.9068 26.4131 31.9068 26.4613 31.8842 26.5004L32.2129 26.6902ZM39.6487 39.0633C39.5583 38.9067 39.3912 38.8102 39.2104 38.8102V39.1898C39.2556 39.1898 39.2974 39.2139 39.32 39.253L39.6487 39.0633Z" fill="url(#paint2_linear_2383_539)" mask="url(#path-2-inside-1_2383_539)"></path></g></g><defs><filter id="filter0_b_2383_539" x="14.9393" y="14.5563" width="39.1214" height="35.8875" filterUnits="userSpaceOnUse" color-interpolation-filters="sRGB"><feFlood flood-opacity="0" result="BackgroundImageFix"></feFlood><feGaussianBlur in="BackgroundImageFix" stdDeviation="2.53036"></feGaussianBlur><feComposite in2="SourceAlpha" operator="in" result="effect1_backgroundBlur_2383_539"></feComposite><feBlend mode="normal" in="SourceGraphic" in2="effect1_backgroundBlur_2383_539" result="shape"></feBlend></filter><linearGradient id="paint0_linear_2383_539" x1="68" y1="65.5714" x2="-4.29204" y2="59.7757" gradientUnits="userSpaceOnUse"><stop stop-color="#445FFF"></stop><stop offset="1" stop-color="#66A3FF"></stop></linearGradient><linearGradient id="paint1_linear_2383_539" x1="21.3182" y1="18.626" x2="54.8562" y2="54.1189" gradientUnits="userSpaceOnUse"><stop stop-color="#F0F2FF" stop-opacity="0.6"></stop><stop offset="1" stop-color="white"></stop></linearGradient><linearGradient id="paint2_linear_2383_539" x1="20.811" y1="22.7116" x2="45.8974" y2="48.4914" gradientUnits="userSpaceOnUse"><stop stop-color="white" stop-opacity="0.8"></stop><stop offset="1" stop-color="white" stop-opacity="0"></stop></linearGradient></defs></svg>