<svg id="_\u56FE\u5C42_2" data-name="\u56FE\u5C42 2" xmlns="http://www.w3.org/2000/svg" viewBox="0 0 540 140" style="width: 2rem; cursor: pointer;"><defs>
    <style>
      .cls-1 {
        fill: #4a5dff;
      }

      .cls-1, .cls-2, .cls-3 {
        stroke-width: 0px;
      }

      .cls-2 {
        fill: #55bcee;
      }

      .cls-3 {
        fill: #1d313b;
      }
    </style>
    </defs><g id="_\u56FE\u5C42_1-2" data-name="\u56FE\u5C42 1"><g><polygon class="cls-1" points="46.67 46.67 70 0 140 140 93.33 140 46.67 46.67"></polygon><polygon class="cls-2" points="0 140 46.67 140 81.67 70 35 70 0 140"></polygon><g><circle class="cls-3" cx="360" cy="20" r="10"></circle><path class="cls-3" d="m235.02,130c-.85-1.66-2.05-5.96-2.69-9.71-6.2,6.47-13.78,9.71-22.76,9.71s-15.82-2.49-21.32-7.46c-5.5-4.97-8.25-11.12-8.25-18.45,0-9.25,3.43-16.35,10.3-21.3,6.86-4.95,16.68-7.42,29.45-7.42h12.27v-5.69c0-12.68-10.99-14.68-17.98-14.68-5,0-16.98,3-16.98,12h-16.98c0-4.76,5-17,19.37-23.47,5.39-2.43,11.47-3.53,18.15-3.53,10.15,0,18.24,2.55,24.28,7.66,6.04,5.11,7.98,12.29,8.14,21.54v39.14c0,8.66,2,15.66,5,21.66h-19.98Zm-21.84-15.64c3.85,0,7.47-.93,10.86-2.81,3.39-1.87,6.27-4.38,7.98-7.54v-16.36h-10.83c-7.21,0-12.64,1.26-16.27,3.77-3.63,2.51-5.45,6.07-5.45,10.67,0,3.74,1.24,6.73,3.73,8.94,2.49,2.22,5.81,3.33,9.98,3.33Z"></path><path class="cls-3" d="m520.02,130c-.85-1.66-2.05-5.96-2.69-9.71-6.2,6.47-13.78,9.71-22.76,9.71s-15.82-2.49-21.32-7.46c-5.5-4.97-8.25-11.12-8.25-18.45,0-9.25,3.43-16.35,10.3-21.3,6.86-4.95,16.68-7.42,29.45-7.42h12.27v-5.69c0-12.68-10.99-14.68-17.98-14.68-5,0-16.98,3-16.98,12h-16.98c0-4.76,5-17,19.37-23.47,5.39-2.43,11.47-3.53,18.15-3.53,10.15,0,18.24,2.55,24.28,7.66,6.04,5.11,7.98,12.29,8.14,21.54v39.14c0,8.66,2,15.66,5,21.66h-19.98Zm-21.84-15.64c3.85,0,7.47-.93,10.86-2.81,3.39-1.87,6.27-4.38,7.98-7.54v-16.36h-10.83c-7.21,0-12.64,1.26-16.27,3.77-3.63,2.51-5.45,6.07-5.45,10.67,0,3.74,1.24,6.73,3.73,8.94,2.49,2.22,5.81,3.33,9.98,3.33Z"></path><path class="cls-3" d="m300,110l20-70h20l-30,90h-20l-30-90h20l20,70Z"></path><polyline class="cls-3" points="369 108.95 369 130 351 130 351 40 369 40 369 108.95"></polyline><path class="cls-3" d="m418.85,114.44c11.15.56,19.15-7.44,19.15-14.76h17c-3,16.32-12,30.32-35.91,30.32-12.14,0-21.77-3.93-28.88-11.79-7.11-7.86-10.21-18.72-10.21-32.57v-2.01c0-13.21,3.07-23.78,10.13-31.72,7.06-7.94,16.68-11.91,28.88-11.91,10.32,0,18.73,3.01,25.23,9.02,6.5,6.02,10.45,13.92,10.77,23.7h-17c-.21-4.97-4-16.73-19.15-17.09-6.31-.15-11.18,2.29-14.6,6.86-3.42,4.57-6.19,11.51-6.25,20.82v3.13c0,9.41,2.73,16.43,6.13,21.06,3.4,4.63,8.31,6.62,14.72,6.94Z"></path></g></g></g></svg>