<svg width="24" height="24" viewBox="0 0 24 24" fill="none" xmlns="http://www.w3.org/2000/svg"><g id="Frame"><path id="Vector" d="M6.75 10.5C5.925 10.5 5.25 11.175 5.25 12C5.25 12.825 5.925 13.5 6.75 13.5C7.575 13.5 8.25 12.825 8.25 12C8.25 11.175 7.575 10.5 6.75 10.5ZM17.25 10.5C16.425 10.5 15.75 11.175 15.75 12C15.75 12.825 16.425 13.5 17.25 13.5C18.075 13.5 18.75 12.825 18.75 12C18.75 11.175 18.075 10.5 17.25 10.5ZM12 10.5C11.175 10.5 10.5 11.175 10.5 12C10.5 12.825 11.175 13.5 12 13.5C12.825 13.5 13.5 12.825 13.5 12C13.5 11.175 12.825 10.5 12 10.5Z" fill="#7F8C99"></path></g></svg>