<svg width="68" height="68" viewBox="0 0 68 68" fill="none" xmlns="http://www.w3.org/2000/svg"><g clip-path="url(#clip0_2383_581)"><g filter="url(#filter0_b_2383_581)"><rect width="68" height="68" rx="34" fill="url(#paint0_linear_2383_581)"></rect><rect x="0.308761" y="0.308761" width="67.3825" height="67.3825" rx="33.6912" stroke="url(#paint1_linear_2383_581)" stroke-width="0.617521"></rect></g><g filter="url(#filter1_b_2383_581)"><path d="M19.834 24.2628C19.834 23.9643 20.0542 23.7117 20.3499 23.6709L30.7667 22.2355C31.1257 22.186 31.4457 22.465 31.4457 22.8273V32.764C31.4457 33.094 31.1782 33.3615 30.8482 33.3615H20.4314C20.1015 33.3615 19.834 33.094 19.834 32.764V24.2628ZM19.834 43.7503C19.834 44.0487 20.0542 44.3014 20.3499 44.3421L30.7667 45.7775C31.1257 45.827 31.4457 45.5481 31.4457 45.1857V35.3882C31.4457 35.0582 31.1782 34.7907 30.8482 34.7907H20.4314C20.1015 34.7907 19.834 35.0582 19.834 35.3882V43.7503ZM32.7232 45.5212C32.7232 45.8196 32.9434 46.0723 33.239 46.1131L47.4883 48.0795C47.8473 48.129 48.1674 47.8501 48.1674 47.4876V35.3882C48.1674 35.0582 47.8999 34.7907 47.57 34.7907H33.3206C32.9907 34.7907 32.7232 35.0582 32.7232 35.3882V45.5212ZM33.239 21.9C32.9434 21.9408 32.7232 22.1934 32.7232 22.4918V32.764C32.7232 33.094 32.9907 33.3615 33.3206 33.3615H47.57C47.8999 33.3615 48.1674 33.094 48.1674 32.764V20.5254C48.1674 20.163 47.8473 19.884 47.4883 19.9336L33.239 21.9Z" fill="url(#paint2_linear_2383_581)"></path><path d="M20.0229 24.2628C20.0229 24.0587 20.1735 23.8859 20.3757 23.858L20.3499 23.6709L20.3757 23.858L30.7925 22.4226C31.0379 22.3888 31.2568 22.5795 31.2568 22.8273V32.764C31.2568 32.9896 31.0739 33.1726 30.8482 33.1726H20.4314C20.2058 33.1726 20.0229 32.9896 20.0229 32.764V24.2628ZM20.3757 44.155C20.1735 44.1272 20.0229 43.9544 20.0229 43.7503V35.3882C20.0229 35.1625 20.2058 34.9796 20.4314 34.9796H30.8482C31.0739 34.9796 31.2568 35.1625 31.2568 35.3882V45.1857C31.2568 45.4335 31.038 45.6242 30.7925 45.5904L20.3757 44.155ZM33.2648 45.9259C33.0626 45.898 32.9121 45.7253 32.9121 45.5212V35.3882C32.9121 35.1625 33.095 34.9796 33.3206 34.9796H47.57C47.7956 34.9796 47.9785 35.1625 47.9785 35.3882V47.4876C47.9785 47.7355 47.7596 47.9262 47.5141 47.8923L33.2648 45.9259ZM32.9121 22.4918C32.9121 22.2878 33.0626 22.115 33.2648 22.0871L47.5141 20.1207C47.7596 20.0868 47.9785 20.2776 47.9785 20.5254V32.764C47.9785 32.9896 47.7956 33.1726 47.57 33.1726H33.3206C33.095 33.1726 32.9121 32.9896 32.9121 32.764V22.4918Z" stroke="url(#paint3_linear_2383_581)" stroke-width="0.377778"></path></g></g><defs><filter id="filter0_b_2383_581" x="-9.88034" y="-9.88034" width="87.7607" height="87.7607" filterUnits="userSpaceOnUse" color-interpolation-filters="sRGB"><feFlood flood-opacity="0" result="BackgroundImageFix"></feFlood><feGaussianBlur in="BackgroundImageFix" stdDeviation="4.94017"></feGaussianBlur><feComposite in2="SourceAlpha" operator="in" result="effect1_backgroundBlur_2383_581"></feComposite><feBlend mode="normal" in="SourceGraphic" in2="effect1_backgroundBlur_2383_581" result="shape"></feBlend></filter><filter id="filter1_b_2383_581" x="10.2749" y="10.3687" width="47.4517" height="47.2756" filterUnits="userSpaceOnUse" color-interpolation-filters="sRGB"><feFlood flood-opacity="0" result="BackgroundImageFix"></feFlood><feGaussianBlur in="BackgroundImageFix" stdDeviation="4.77956"></feGaussianBlur><feComposite in2="SourceAlpha" operator="in" result="effect1_backgroundBlur_2383_581"></feComposite><feBlend mode="normal" in="SourceGraphic" in2="effect1_backgroundBlur_2383_581" result="shape"></feBlend></filter><linearGradient id="paint0_linear_2383_581" x1="6.18182" y1="-0.00000213146" x2="65.7987" y2="56.2524" gradientUnits="userSpaceOnUse"><stop stop-color="#6096FF"></stop><stop offset="1" stop-color="#4B6CFF"></stop></linearGradient><linearGradient id="paint1_linear_2383_581" x1="1.54546" y1="-0.00000259786" x2="80.7329" y2="28.9668" gradientUnits="userSpaceOnUse"><stop stop-color="white"></stop><stop offset="1" stop-color="white" stop-opacity="0.25"></stop></linearGradient><linearGradient id="paint2_linear_2383_581" x1="21.1219" y1="18.7501" x2="57.9908" y2="53.4171" gradientUnits="userSpaceOnUse"><stop stop-color="#F0F2FF" stop-opacity="0.6"></stop><stop offset="1" stop-color="white"></stop></linearGradient><linearGradient id="paint3_linear_2383_581" x1="20.6263" y1="23.2428" x2="48.1088" y2="48.3355" gradientUnits="userSpaceOnUse"><stop stop-color="white" stop-opacity="0.8"></stop><stop offset="1" stop-color="white" stop-opacity="0"></stop></linearGradient><clipPath id="clip0_2383_581"><rect width="68" height="68" rx="34" fill="white"></rect></clipPath></defs></svg>